<svg width="23" height="21" viewBox="0 0 23 21" fill="none" xmlns="http://www.w3.org/2000/svg">
<path d="M22.2566 7.3947L15.3617 6.43661L12.2794 0.462178C12.1953 0.298601 12.0568 0.166182 11.8857 0.0856924C11.4566 -0.116831 10.9352 0.0519386 10.7207 0.462178L7.63845 6.43661L0.743494 7.3947C0.553401 7.42066 0.379601 7.50635 0.246536 7.63617C0.0856671 7.79426 -0.00297878 8.00694 7.64336e-05 8.22749C0.00313165 8.44804 0.097638 8.6584 0.262829 8.81236L5.25142 13.4626L4.07284 20.029C4.0452 20.1818 4.06288 20.3389 4.12387 20.4825C4.18486 20.6261 4.28673 20.7505 4.41791 20.8416C4.54909 20.9327 4.70435 20.9869 4.86607 20.9979C5.02779 21.0089 5.18951 20.9764 5.33289 20.904L11.5001 17.8039L17.6672 20.904C17.8356 20.9897 18.0311 21.0183 18.2185 20.9871C18.691 20.9092 19.0087 20.4808 18.9273 20.029L17.7487 13.4626L22.7373 8.81236C22.8731 8.68513 22.9627 8.51896 22.9898 8.33721C23.0632 7.88283 22.7318 7.46221 22.2566 7.3947V7.3947Z" fill="#FFCC78"/>
</svg>
